<?xml version="1.0" standalone="no"?>
<!DOCTYPE svg PUBLIC "-//W3C//DTD SVG 20010904//EN"
 "http://www.w3.org/TR/2001/REC-SVG-20010904/DTD/svg10.dtd">
<svg version="1.0" xmlns="http://www.w3.org/2000/svg"
 width="512.000000pt" height="512.000000pt" viewBox="0 0 512.000000 512.000000"
 preserveAspectRatio="xMidYMid meet">
<metadata>
Created by potrace 1.14, written by Peter Selinger 2001-2017
</metadata>
<g transform="translate(0.000000,512.000000) scale(0.100000,-0.100000)"
fill="#000000" stroke="none">
<path d="M0 2560 l0 -2560 2560 0 2560 0 0 2560 0 2560 -2560 0 -2560 0 0
-2560z m941 352 c149 -60 219 -196 178 -347 -14 -52 -99 -135 -156 -154 -49
-16 -56 -31 -15 -31 35 -1 98 -30 140 -65 36 -30 82 -112 82 -146 0 -18 6 -14
43 24 57 58 129 85 281 103 65 8 134 21 153 29 30 13 33 18 33 54 0 46 -30 76
-86 87 -50 9 -120 -20 -139 -57 -15 -28 -17 -29 -94 -29 -122 0 -171 9 -171
32 0 31 46 111 87 150 65 63 141 91 261 96 64 3 126 0 161 -8 75 -16 166 -65
201 -109 56 -68 60 -94 60 -443 l0 -318 -130 0 -130 0 0 59 0 60 -52 -53 c-66
-65 -113 -80 -235 -74 -137 6 -210 55 -248 165 l-12 35 -35 -49 c-20 -27 -58
-62 -90 -81 -90 -53 -155 -62 -485 -62 l-293 0 0 581 0 580 318 -3 c301 -3
320 -5 373 -26z m2179 -273 c0 -193 4 -299 10 -297 5 2 63 71 128 153 l118
150 269 3 270 2 80 -310 c44 -170 82 -310 85 -310 3 0 40 136 84 303 43 166
82 306 85 310 4 4 71 6 148 5 l141 -3 -173 -503 c-96 -276 -183 -518 -195
-537 -33 -53 -106 -112 -163 -131 -61 -21 -209 -24 -273 -6 l-42 12 31 99 30
99 58 -5 c44 -4 65 -2 83 10 50 33 47 47 -105 489 -78 227 -142 414 -143 415
-5 6 -251 -308 -250 -319 1 -8 69 -118 153 -245 83 -127 151 -234 151 -237 0
-3 -71 -6 -157 -6 l-158 1 -99 159 c-55 88 -103 160 -107 160 -4 0 -19 -14
-33 -31 -25 -29 -26 -35 -26 -160 l0 -129 -135 0 -135 0 0 580 0 580 135 0
135 0 0 -301z m-518 -8 c113 -44 201 -155 215 -272 l6 -49 -132 0 c-113 0
-131 2 -131 16 0 31 -34 87 -64 105 -19 12 -50 19 -78 19 -66 0 -121 -49 -144
-128 -23 -78 -15 -195 17 -258 41 -79 133 -108 204 -64 32 20 65 72 65 104 0
14 18 16 131 16 l132 0 -6 -47 c-16 -135 -116 -250 -248 -287 -84 -23 -150
-27 -230 -16 -223 32 -359 198 -359 439 0 222 95 366 285 434 73 26 257 19
337 -12z m-1392 -1136 l0 -115 -175 0 -175 0 0 -465 0 -465 -140 0 -140 0 0
465 0 465 -175 0 -175 0 0 115 0 115 490 0 490 0 0 -115z m2380 -185 c0 -165
3 -300 8 -300 4 0 61 70 127 155 l120 154 270 -2 270 -2 79 -307 c43 -169 82
-306 85 -303 4 2 43 141 86 309 l80 306 147 0 147 0 -20 -57 c-11 -32 -88
-253 -170 -492 -82 -238 -161 -456 -176 -483 -54 -99 -139 -151 -268 -164 -54
-6 -184 8 -206 22 -6 3 45 191 54 200 1 2 22 -1 45 -7 56 -12 104 7 121 49 12
29 4 57 -130 447 -78 229 -145 414 -149 413 -12 -5 -250 -299 -250 -309 0 -4
70 -114 155 -244 85 -130 155 -238 155 -241 0 -2 -71 -4 -158 -4 l-158 0 -94
151 c-52 83 -98 156 -103 163 -5 7 -17 0 -37 -22 l-30 -32 0 -130 0 -130 -140
0 -140 0 0 580 0 580 140 0 140 0 0 -300z m-1890 -53 l5 -68 39 40 c21 21 66
52 100 68 58 26 69 28 196 28 118 -1 143 -4 194 -24 68 -27 138 -87 169 -146
21 -38 22 -54 25 -372 l3 -333 -130 0 -131 0 0 59 0 60 -52 -53 c-63 -62 -117
-81 -223 -79 -119 3 -195 41 -242 121 -25 41 -28 57 -28 132 0 75 3 91 28 133
50 85 122 118 308 142 168 22 189 31 189 88 0 37 -38 74 -84 83 -51 9 -121
-19 -143 -57 -17 -29 -18 -29 -114 -29 -117 0 -159 7 -152 25 7 20 -60 30
-110 15 -50 -14 -78 -35 -106 -81 -20 -32 -21 -48 -21 -296 l0 -263 -140 0
-140 0 0 435 0 435 135 0 135 0 1 -82 1 -83 15 35 c42 99 104 141 203 137 l65
-2 5 -68z m1381 36 c36 -16 82 -45 102 -62 44 -39 95 -138 103 -203 l7 -48
-130 0 -130 0 -12 39 c-36 123 -192 137 -259 22 -25 -42 -27 -54 -27 -156 0
-95 3 -116 23 -153 62 -116 217 -110 259 9 l18 49 129 0 129 0 -7 -46 c-9 -69
-52 -156 -99 -202 -142 -139 -421 -146 -591 -17 -47 36 -100 117 -126 196 -19
55 -22 80 -18 184 3 109 7 126 35 187 40 84 97 147 172 186 81 44 120 52 246
49 99 -3 117 -6 176 -34z"/>
<path d="M532 2593 l3 -128 107 1 c98 1 111 3 147 27 62 41 76 126 28 177 -35
38 -80 50 -187 50 l-101 0 3 -127z"/>
<path d="M530 2145 l0 -135 120 0 c180 0 230 28 230 130 0 56 -23 96 -70 120
-33 17 -59 20 -160 20 l-120 0 0 -135z"/>
<path d="M1592 2149 c-143 -30 -177 -53 -175 -117 3 -104 187 -114 246 -13 20
33 36 152 21 150 -5 -1 -47 -10 -92 -20z"/>
<path d="M2080 821 c-127 -27 -143 -33 -172 -61 -37 -37 -36 -73 1 -111 25
-25 37 -29 83 -29 106 0 161 55 156 157 l-3 58 -65 -14z"/>
</g>
</svg>
